<?xml version="1.0" encoding="utf-8"?>
<!-- Generator: Adobe Illustrator 27.0.0, SVG Export Plug-In . SVG Version: 6.00 Build 0)  -->
<svg version="1.1" id="Livello_1" xmlns="http://www.w3.org/2000/svg" xmlns:xlink="http://www.w3.org/1999/xlink" x="0px" y="0px"
	 viewBox="0 0 300 300.3" style="enable-background:new 0 0 300 300.3;" xml:space="preserve">
<style type="text/css">
	.st0{fill-rule:evenodd;clip-rule:evenodd;fill:#FBFDFC;}
	.st1{fill:#FBFDFC;}
</style>
<g>
	<path class="st0" d="M150,229.5c43.8,0,79.4-35.5,79.4-79.4S193.8,70.8,150,70.8c-43.8,0-79.4,35.5-79.4,79.4
		S106.2,229.5,150,229.5z M150,203.1c29.2,0,52.9-23.7,52.9-52.9S179.2,97.2,150,97.2s-52.9,23.7-52.9,52.9S120.8,203.1,150,203.1z"
		/>
	<path class="st1" d="M229.4,57.5c-7.3,0-13.2,5.9-13.2,13.2c0,7.3,5.9,13.2,13.2,13.2c7.3,0,13.2-5.9,13.2-13.2
		C242.6,63.5,236.7,57.5,229.4,57.5z"/>
	<path class="st0" d="M13.1,48c-8.7,17-8.7,39.2-8.7,83.7v37c0,44.5,0,66.7,8.7,83.7c7.6,14.9,19.8,27.1,34.7,34.7
		c17,8.7,39.2,8.7,83.7,8.7h37c44.5,0,66.7,0,83.7-8.7c14.9-7.6,27.1-19.8,34.7-34.7c8.7-17,8.7-39.2,8.7-83.7v-37
		c0-44.5,0-66.7-8.7-83.7c-7.6-14.9-19.8-27.1-34.7-34.7c-17-8.7-39.2-8.7-83.7-8.7h-37c-44.5,0-66.7,0-83.7,8.7
		C32.9,20.9,20.7,33,13.1,48z M168.5,31.1h-37c-22.7,0-38.1,0-50,1C69.9,33,64,34.7,59.8,36.8C49.9,41.9,41.8,50,36.7,60
		c-2.1,4.1-3.8,10.1-4.8,21.7c-1,11.9-1,27.3-1,50v37c0,22.7,0,38.1,1,50c0.9,11.6,2.7,17.5,4.8,21.7c5.1,10,13.2,18.1,23.1,23.1
		c4.1,2.1,10.1,3.8,21.7,4.8c11.9,1,27.3,1,50,1h37c22.7,0,38.1,0,50-1c11.6-0.9,17.5-2.7,21.7-4.8c10-5.1,18.1-13.2,23.1-23.1
		c2.1-4.1,3.8-10.1,4.8-21.7c1-11.9,1-27.3,1-50v-37c0-22.7,0-38.1-1-50c-0.9-11.6-2.7-17.5-4.8-21.7c-5.1-10-13.2-18.1-23.1-23.1
		c-4.1-2.1-10.1-3.8-21.7-4.8C206.6,31.1,191.2,31.1,168.5,31.1z"/>
</g>
</svg>
