<?xml version="1.0" encoding="utf-8"?>
<!-- Generator: Adobe Illustrator 27.0.0, SVG Export Plug-In . SVG Version: 6.00 Build 0)  -->
<svg version="1.1" id="Livello_1" xmlns:serif="http://www.serif.com/"
	 xmlns="http://www.w3.org/2000/svg" xmlns:xlink="http://www.w3.org/1999/xlink" x="0px" y="0px" viewBox="0 0 45 43"
	 style="enable-background:new 0 0 45 43;" xml:space="preserve">
<style type="text/css">
	.st0{fill:none;stroke:#FFFFFF;stroke-width:5.4086;stroke-linejoin:round;}
	.st1{fill:none;stroke:#FFFFFF;stroke-width:3.2648;stroke-linejoin:round;}
</style>
<path class="st0" d="M-395.3-265.4v38.2c0,2.5,2,4.5,4.5,4.5h10.8v-25.7l18,13.6l18-13.6v25.7h10.8c2.5,0,4.5-2,4.5-4.5v-38.2
	c0-6-6.8-9.4-11.6-5.7l-21.8,16.6l-21.8-16.6C-388.5-274.7-395.3-271.3-395.3-265.4z"/>
<path class="st1" d="M2.4,10.8v23.1c0,1.5,1.2,2.7,2.7,2.7h6.5V21.1l10.9,8.2l10.9-8.2v15.5h6.5c1.5,0,2.7-1.2,2.7-2.7V10.8
	c0-3.6-4.1-5.6-7-3.5l-13.1,10L9.4,7.3C6.5,5.1,2.4,7.2,2.4,10.8z"/>
</svg>
