<?xml version="1.0" encoding="utf-8"?>
<!-- Generator: Adobe Illustrator 27.0.0, SVG Export Plug-In . SVG Version: 6.00 Build 0)  -->
<svg version="1.1" id="Livello_3" xmlns="http://www.w3.org/2000/svg" xmlns:xlink="http://www.w3.org/1999/xlink" x="0px" y="0px"
	 viewBox="0 0 300 300" style="enable-background:new 0 0 300 300;" xml:space="preserve">
<style type="text/css">
	.st0{fill:#FFFFFF;stroke:#FFFFFF;stroke-miterlimit:10;}
	.st1{fill:none;stroke:#FFFFFF;stroke-width:5.6265;stroke-miterlimit:10;}
</style>
<g id="_white_">
	<g id="tracciato_png">
		<path class="st0" d="M252.7,160.1c2.7-21.2-0.6-39.4-2.7-50.6c-2.3-12.6-7.9-34.1-21.2-56.6c-6.5-11-11.7-17-17.1-16.5
			c-2.4,0.2-5.3,1.7-13.4,17.2c-9.6,18.3-15.1,29.1-16.2,45.2c-0.6,8,0.2,14.6,0.8,19c-3-0.7-7.4-1.6-12.9-2.1
			c-6.4-0.8-13.5-1.4-21.2-1.3c-7.5,0-14.4,0.5-20.6,1.3c-5.5,0.5-9.9,1.4-12.9,2.1c0.7-4.3,1.4-11,0.8-19
			c-1.1-16.1-6.6-26.9-16.2-45.2c-8.1-15.5-11-17-13.4-17.2c-5.4-0.5-10.6,5.5-17.1,16.5c-13.3,22.6-18.8,44-21.2,56.6
			c-2.1,11.2-5.4,29.4-2.7,50.6c0.6,4.7,1.4,8.7,1.9,16.3c1.4,19.8-1.9,23-0.3,33.3c3,18.6,17.1,30.5,20.4,33.1
			c8.3,6.7,16.1,8.7,29.5,12.2c6.5,1.7,12.2,3.1,17.2,4.3l0,0c8.8,2.2,20.5,4.3,34.3,4.3c13.6,0,25.2-1.9,33.9-4l0,0
			c5.4-1.2,11.5-2.8,18.7-4.6c13.4-3.5,21.1-5.5,29.5-12.2c3.3-2.6,17.4-14.5,20.4-33.1c1.6-10.3-1.6-13.5-0.3-33.3
			C251.3,168.8,252.1,164.8,252.7,160.1L252.7,160.1z M134.2,172.3l-13.5,12.9c-0.3,0.3-0.5,0.7-0.4,1.2l3,18.4c0.2,1.1-1,1.9-2,1.4
			l-16.4-8.9c-0.4-0.2-0.9-0.2-1.3,0L87,205.9c-1,0.5-2.1-0.3-1.9-1.4l3.3-18.4c0.1-0.4-0.1-0.9-0.4-1.2l-13.2-13.2
			c-0.8-0.8-0.3-2.1,0.8-2.3l18.5-2.5c0.4-0.1,0.8-0.3,1-0.7l8.4-16.7c0.5-1,1.9-1,2.4,0l8.1,16.8c0.2,0.4,0.6,0.7,1,0.7l18.4,2.9
			C134.5,170.2,135,171.5,134.2,172.3L134.2,172.3z M158.2,216.7l-5,5.7c0,0-0.1,0.1-0.2,0.2c-0.1,0.1-0.1,0.2-0.2,0.2l0,0
			c0,0-0.1,0.1-0.2,0.1c-0.2,0.1-0.3,0.3-0.5,0.4c-0.1,0.1-0.2,0.1-0.3,0.2c-0.2,0.1-0.4,0.2-0.6,0.3c-0.1,0-0.2,0.1-0.4,0.1
			c-0.2,0.1-0.4,0.1-0.6,0.1c-0.2,0-0.3,0.1-0.5,0.1c-0.2,0-0.3,0-0.5,0c-0.2,0-0.4,0-0.6,0c-0.1,0-0.3,0-0.4-0.1
			c-0.2,0-0.4-0.1-0.7-0.2c-0.1,0-0.2-0.1-0.3-0.1c-0.2-0.1-0.5-0.2-0.7-0.3c-0.1-0.1-0.2-0.1-0.3-0.2c-0.2-0.1-0.4-0.3-0.6-0.4
			c-0.1,0-0.1-0.1-0.2-0.1l0,0c-0.1-0.1-0.1-0.1-0.2-0.2c-0.1-0.1-0.2-0.1-0.2-0.2l-5-5.7c-1.9-2.2-1.7-5.5,0.5-7.5
			c1-0.9,2.3-1.3,3.5-1.3c0,0,0,0,0,0c3.3,0,6.7,0,10,0c0,0,0,0,0,0c1.3,0,2.5,0.4,3.5,1.3C159.9,211.1,160.1,214.4,158.2,216.7
			L158.2,216.7z M223.6,173.7l-13.5,12.9c-0.3,0.3-0.5,0.7-0.4,1.2l3,18.4c0.2,1.1-1,1.9-2,1.4l-16.4-8.9c-0.4-0.2-0.9-0.2-1.3,0
			l-16.6,8.5c-1,0.5-2.1-0.3-1.9-1.4l3.3-18.4c0.1-0.4-0.1-0.9-0.4-1.2l-13.2-13.2c-0.8-0.8-0.3-2.1,0.8-2.3l18.5-2.5
			c0.4-0.1,0.8-0.3,1-0.7l8.4-16.7c0.5-1,1.9-1,2.4,0l8.1,16.8c0.2,0.4,0.6,0.7,1,0.7l18.4,2.9C224,171.6,224.4,172.9,223.6,173.7
			L223.6,173.7z"/>
		<g id="wiskers">
			<path class="st0" d="M285.6,214.1c-13.1-9.1-30.2-12.2-45.7-8.3c-4.7,1.2-8,2.8-10.3,5l-3.9-4.1c3-2.9,7.1-4.9,12.8-6.3
				c17-4.3,35.9-0.9,50.3,9.1L285.6,214.1z"/>
			<path class="st1" d="M227.9,222.7c3.7-2.2,8.2-2.8,12.5-3c16.8-0.4,33.6,6.7,44.9,19.1"/>
			<path class="st1" d="M219.5,222.7c4.2-1,8.7-0.2,12.8,1c16.1,4.7,29.9,16.6,37,31.8"/>
			<path class="st1" d="M70.8,207.5c-3.1-3-7.3-4.6-11.5-5.6c-16.3-4.1-34.2-0.9-48,8.7"/>
			<path class="st1" d="M70.5,221.5c-3.7-2.2-8.2-2.8-12.5-3c-16.8-0.4-33.6,6.7-44.9,19.1"/>
			<path class="st1" d="M78.9,221.4c-4.2-1-8.7-0.2-12.8,1c-16.1,4.7-29.9,16.6-37,31.8"/>
		</g>
	</g>
</g>
</svg>
