<?xml version="1.0" encoding="utf-8"?>
<!-- Generator: Adobe Illustrator 27.0.0, SVG Export Plug-In . SVG Version: 6.00 Build 0)  -->
<svg version="1.1" id="Livello_3" xmlns="http://www.w3.org/2000/svg" xmlns:xlink="http://www.w3.org/1999/xlink" x="0px" y="0px"
	 viewBox="0 0 300 300" style="enable-background:new 0 0 300 300;" xml:space="preserve">
<style type="text/css">
	.st0{fill:#FFFFFF;}
	.st1{fill:none;stroke:#FFFFFF;stroke-width:4;stroke-miterlimit:10;}
	.st2{font-family:'HelveticaNowText-Bold';}
	.st3{font-size:32px;}
</style>
<g id="_white_">
	<g id="tracciato_png">
		<path class="st0" d="M222.4,157.2c1.9-15.1-0.5-28-1.9-36c-1.7-9-5.6-24.2-15-40.3c-4.6-7.8-8.3-12.1-12.1-11.7
			c-1.7,0.2-3.8,1.2-9.5,12.3c-6.8,13-10.7,20.7-11.5,32.1c-0.4,5.7,0.1,10.4,0.6,13.5c-2.1-0.5-5.3-1.1-9.2-1.5
			c-4.6-0.6-9.6-1-15.1-0.9c-5.3,0-10.2,0.4-14.7,0.9c-3.9,0.4-7,1-9.2,1.5c0.5-3.1,1-7.8,0.6-13.5c-0.8-11.5-4.7-19.1-11.5-32.1
			c-5.8-11-7.8-12.1-9.5-12.3c-3.8-0.3-7.5,3.9-12.1,11.7c-9.4,16-13.4,31.3-15,40.3c-1.5,8-3.9,20.9-1.9,36c0.4,3.3,1,6.2,1.4,11.6
			c1,14.1-1.3,16.4-0.2,23.7c2.1,13.2,12.2,21.7,14.5,23.5c5.9,4.7,11.4,6.2,20.9,8.7c4.6,1.2,8.6,2.2,12.2,3.1l0,0
			c6.2,1.6,14.6,3,24.4,3.1c9.7,0,17.9-1.3,24.1-2.8l0,0c3.8-0.9,8.2-2,13.3-3.3c9.5-2.5,15-3.9,20.9-8.7
			c2.3-1.9,12.4-10.3,14.5-23.5c1.2-7.4-1.1-9.6-0.2-23.7C221.5,163.4,222,160.5,222.4,157.2L222.4,157.2z M138.2,165.9l-9.6,9.2
			c-0.2,0.2-0.3,0.5-0.3,0.8l2.1,13.1c0.1,0.8-0.7,1.4-1.4,1l-11.7-6.3c-0.3-0.1-0.6-0.1-0.9,0l-11.8,6.1c-0.7,0.4-1.5-0.2-1.4-1
			l2.4-13.1c0.1-0.3,0-0.6-0.3-0.9l-9.4-9.4c-0.6-0.6-0.2-1.5,0.6-1.6l13.2-1.8c0.3,0,0.6-0.2,0.7-0.5l6-11.8c0.4-0.7,1.4-0.7,1.7,0
			l5.8,12c0.1,0.3,0.4,0.5,0.7,0.5l13.1,2C138.4,164.3,138.8,165.3,138.2,165.9L138.2,165.9z M155.3,197.4l-3.6,4
			c0,0-0.1,0.1-0.1,0.1c-0.1,0.1-0.1,0.1-0.2,0.2l0,0c0,0-0.1,0.1-0.1,0.1c-0.1,0.1-0.2,0.2-0.4,0.3c-0.1,0.1-0.2,0.1-0.2,0.1
			c-0.1,0.1-0.3,0.1-0.4,0.2c-0.1,0-0.2,0.1-0.3,0.1c-0.1,0-0.3,0.1-0.4,0.1c-0.1,0-0.2,0-0.3,0.1c-0.1,0-0.2,0-0.4,0
			c-0.1,0-0.3,0-0.4,0c-0.1,0-0.2,0-0.3,0c-0.2,0-0.3-0.1-0.5-0.1c-0.1,0-0.1-0.1-0.2-0.1c-0.2-0.1-0.3-0.1-0.5-0.2
			c-0.1,0-0.1-0.1-0.2-0.1c-0.1-0.1-0.3-0.2-0.4-0.3c0,0-0.1-0.1-0.1-0.1l0,0c-0.1-0.1-0.1-0.1-0.1-0.1c-0.1-0.1-0.1-0.1-0.1-0.1
			l-3.6-4c-1.4-1.6-1.2-3.9,0.3-5.3c0.7-0.6,1.6-0.9,2.5-0.9c0,0,0,0,0,0c2.4,0,4.7,0,7.1,0c0,0,0,0,0,0c0.9,0,1.8,0.3,2.5,0.9
			C156.5,193.4,156.6,195.8,155.3,197.4L155.3,197.4z M201.8,166.9l-9.6,9.2c-0.2,0.2-0.3,0.5-0.3,0.8L194,190
			c0.1,0.8-0.7,1.4-1.4,1l-11.7-6.3c-0.3-0.1-0.6-0.1-0.9,0l-11.8,6.1c-0.7,0.4-1.5-0.2-1.4-1l2.4-13.1c0.1-0.3,0-0.6-0.3-0.9
			l-9.4-9.4c-0.6-0.6-0.2-1.5,0.6-1.6l13.1-1.8c0.3,0,0.6-0.2,0.7-0.5l6-11.8c0.4-0.7,1.4-0.7,1.7,0l5.8,12c0.1,0.3,0.4,0.5,0.7,0.5
			l13.1,2C202,165.3,202.4,166.3,201.8,166.9L201.8,166.9z"/>
		<g id="wiskers">
			<path class="st0" d="M245.8,195.6c-9.3-6.5-21.5-8.7-32.5-5.9c-3.4,0.9-5.7,2-7.3,3.5l-2.8-2.9c2.2-2.1,5-3.5,9.1-4.5
				c12.1-3.1,25.5-0.6,35.8,6.5L245.8,195.6z"/>
			<path class="st1" d="M204.8,201.7c2.6-1.6,5.8-2,8.9-2.1c11.9-0.3,23.9,4.8,31.9,13.6"/>
			<path class="st1" d="M198.9,201.7c3-0.7,6.1-0.2,9.1,0.7c11.4,3.3,21.3,11.8,26.3,22.6"/>
			<path class="st1" d="M93.1,190.9c-2.2-2.1-5.2-3.3-8.2-4c-11.6-2.9-24.3-0.6-34.1,6.2"/>
			<path class="st1" d="M92.9,200.8c-2.6-1.6-5.8-2-8.9-2.1c-11.9-0.3-23.9,4.8-31.9,13.6"/>
			<path class="st1" d="M98.9,200.8c-3-0.7-6.2-0.2-9.1,0.7c-11.4,3.3-21.3,11.8-26.3,22.6"/>
		</g>
	</g>
	<text transform="matrix(1 0 0 1 16.287 137.3042)" class="st0 st2 st3">J</text>
	<text transform="matrix(1 0 0 1 262.497 139.5742)" class="st0 st2 st3">S</text>
</g>
</svg>
