<?xml version="1.0" encoding="utf-8"?>
<!-- Generator: Adobe Illustrator 27.0.0, SVG Export Plug-In . SVG Version: 6.00 Build 0)  -->
<svg version="1.1" id="Livello_1" xmlns:serif="http://www.serif.com/"
	 xmlns="http://www.w3.org/2000/svg" xmlns:xlink="http://www.w3.org/1999/xlink" x="0px" y="0px" viewBox="0 0 45 43"
	 style="enable-background:new 0 0 45 43;" xml:space="preserve">
<style type="text/css">
	.st0{fill:none;stroke:#FFFFFF;stroke-width:5.4086;stroke-linejoin:round;}
	.st1{fill:none;stroke:#FFFFFF;stroke-width:3.0539;stroke-linecap:round;stroke-linejoin:round;}
</style>
<path class="st0" d="M-395.3-265.4v38.2c0,2.5,2,4.5,4.5,4.5h10.8v-25.7l18,13.6l18-13.6v25.7h10.8c2.5,0,4.5-2,4.5-4.5v-38.2
	c0-6-6.8-9.4-11.6-5.7l-21.8,16.6l-21.8-16.6C-388.5-274.7-395.3-271.3-395.3-265.4z"/>
<path class="st1" d="M27.2,29.5l2.7-2.7c0.4-0.4,0.9-0.8,1.5-1c0.5-0.2,1.1-0.3,1.7-0.3c0.6,0,1.2,0.1,1.7,0.3c0.5,0.2,1,0.6,1.5,1
	l3.2,3.2c0.4,0.4,0.8,0.9,1,1.5c0.2,0.5,0.3,1.1,0.3,1.7c0,0.6-0.1,1.2-0.3,1.7c-0.2,0.5-0.6,1-1,1.5L38,37.8c-1,1-2.3,1.7-3.7,1.9
	c-1.4,0.2-2.8,0-4.1-0.6C19.4,33.5,10.5,24.6,4.9,13.7C4.2,12.5,4,11,4.3,9.6C4.5,8.2,5.2,7,6.2,6l1.4-1.5c0.8-0.8,2-1.3,3.2-1.3
	s2.3,0.5,3.2,1.3l3.2,3.2c0.8,0.8,1.3,2,1.3,3.2c0,1.2-0.5,2.3-1.3,3.2l-2.7,2.7c1.8,2.4,3.8,4.7,5.9,6.8
	C22.5,25.7,24.8,27.7,27.2,29.5L27.2,29.5z"/>
</svg>
