<?xml version="1.0" encoding="utf-8"?>
<!-- Generator: Adobe Illustrator 27.3.1, SVG Export Plug-In . SVG Version: 6.00 Build 0)  -->
<svg version="1.1" xmlns="http://www.w3.org/2000/svg" xmlns:xlink="http://www.w3.org/1999/xlink" x="0px" y="0px"
	 viewBox="0 0 300 300" style="enable-background:new 0 0 300 300;" xml:space="preserve">
<style type="text/css">
	.st0{fill:#FFFFFF;}
	.st1{fill:#30343F;stroke:#FFFFFF;stroke-width:0.796;stroke-miterlimit:10;}
	.st2{fill:#30343F;}
	.st3{fill:none;stroke:#30343F;stroke-width:4.4788;stroke-miterlimit:10;}
</style>
<g id="Livello_2">
	<circle class="st0" cx="150" cy="150" r="146.7"/>
</g>
<g id="Livello_1">
	<g id="Livello_3">
		<g id="_white_">
			<g id="tracciato_png">
				<path class="st1" d="M231.7,158.1c2.1-16.9-0.5-31.4-2.1-40.3c-1.8-10-6.3-27.1-16.9-45.1c-5.2-8.8-9.3-13.5-13.6-13.1
					c-1.9,0.2-4.2,1.4-10.7,13.7c-7.6,14.6-12,23.2-12.9,36c-0.5,6.4,0.2,11.6,0.6,15.1c-2.4-0.6-5.9-1.3-10.3-1.7
					c-5.1-0.6-10.7-1.1-16.9-1c-6,0-11.5,0.4-16.4,1c-4.4,0.4-7.9,1.1-10.3,1.7c0.6-3.4,1.1-8.8,0.6-15.1
					c-0.9-12.8-5.3-21.4-12.9-36c-6.4-12.3-8.8-13.5-10.7-13.7C95.1,59.2,91,64,85.8,72.7c-10.6,18-15,35-16.9,45.1
					c-1.7,8.9-4.3,23.4-2.1,40.3c0.5,3.7,1.1,6.9,1.5,13c1.1,15.8-1.5,18.3-0.2,26.5c2.4,14.8,13.6,24.3,16.2,26.3
					c6.6,5.3,12.8,6.9,23.5,9.7c5.2,1.4,9.7,2.5,13.7,3.4l0,0c7,1.8,16.3,3.4,27.3,3.4c10.8,0,20.1-1.5,27-3.2l0,0
					c4.3-1,9.2-2.2,14.9-3.7c10.7-2.8,16.8-4.4,23.5-9.7c2.6-2.1,13.9-11.5,16.2-26.3c1.3-8.2-1.3-10.7-0.2-26.5
					C230.6,165,231.2,161.8,231.7,158.1L231.7,158.1z M137.4,167.8L126.6,178c-0.2,0.2-0.4,0.6-0.3,1l2.4,14.6
					c0.2,0.9-0.8,1.5-1.6,1.1l-13.1-7.1c-0.3-0.2-0.7-0.2-1,0l-13.2,6.8c-0.8,0.4-1.7-0.2-1.5-1.1l2.6-14.6c0.1-0.3-0.1-0.7-0.3-1
					l-10.5-10.5c-0.6-0.6-0.2-1.7,0.6-1.8l14.7-2c0.3-0.1,0.6-0.2,0.8-0.6l6.7-13.3c0.4-0.8,1.5-0.8,1.9,0l6.4,13.4
					c0.2,0.3,0.5,0.6,0.8,0.6l14.6,2.3C137.6,166.1,138,167.1,137.4,167.8L137.4,167.8z M156.5,203.1l-4,4.5c0,0-0.1,0.1-0.2,0.2
					c-0.1,0.1-0.1,0.2-0.2,0.2l0,0c0,0-0.1,0.1-0.2,0.1c-0.2,0.1-0.2,0.2-0.4,0.3c-0.1,0.1-0.2,0.1-0.2,0.2
					c-0.2,0.1-0.3,0.2-0.5,0.2c-0.1,0-0.2,0.1-0.3,0.1c-0.2,0.1-0.3,0.1-0.5,0.1c-0.2,0-0.2,0.1-0.4,0.1c-0.2,0-0.2,0-0.4,0
					s-0.3,0-0.5,0c-0.1,0-0.2,0-0.3-0.1c-0.2,0-0.3-0.1-0.6-0.2c-0.1,0-0.2-0.1-0.2-0.1c-0.2-0.1-0.4-0.2-0.6-0.2
					c-0.1-0.1-0.2-0.1-0.2-0.2c-0.2-0.1-0.3-0.2-0.5-0.3c-0.1,0-0.1-0.1-0.2-0.1l0,0c-0.1-0.1-0.1-0.1-0.2-0.2
					c-0.1-0.1-0.2-0.1-0.2-0.2l-4-4.5c-1.5-1.8-1.4-4.4,0.4-6c0.8-0.7,1.8-1,2.8-1l0,0c2.6,0,5.3,0,8,0l0,0c1,0,2,0.3,2.8,1
					C157.8,198.6,158,201.3,156.5,203.1L156.5,203.1z M208.5,168.9l-10.7,10.3c-0.2,0.2-0.4,0.6-0.3,1l2.4,14.6
					c0.2,0.9-0.8,1.5-1.6,1.1l-13.1-7.1c-0.3-0.2-0.7-0.2-1,0l-13.2,6.8c-0.8,0.4-1.7-0.2-1.5-1.1l2.6-14.6c0.1-0.3-0.1-0.7-0.3-1
					l-10.5-10.5c-0.6-0.6-0.2-1.7,0.6-1.8l14.7-2c0.3-0.1,0.6-0.2,0.8-0.6l6.7-13.3c0.4-0.8,1.5-0.8,1.9,0l6.4,13.4
					c0.2,0.3,0.5,0.6,0.8,0.6l14.6,2.3C208.9,167.2,209.2,168.2,208.5,168.9L208.5,168.9z"/>
				<g id="wiskers">
					<path class="st2" d="M257.9,201c-10.4-7.2-24-9.7-36.4-6.6c-3.7,1-6.4,2.2-8.2,4l-3.1-3.3c2.4-2.3,5.7-3.9,10.2-5
						c13.5-3.4,28.6-0.7,40,7.2L257.9,201z"/>
					<path class="st3" d="M212,207.9c2.9-1.8,6.5-2.2,10-2.4c13.4-0.3,26.7,5.3,35.7,15.2"/>
					<path class="st3" d="M205.3,207.9c3.3-0.8,6.9-0.2,10.2,0.8c12.8,3.7,23.8,13.2,29.5,25.3"/>
					<path class="st3" d="M86.9,195.8c-2.5-2.4-5.8-3.7-9.2-4.5c-13-3.3-27.2-0.7-38.2,6.9"/>
					<path class="st3" d="M86.7,206.9c-2.9-1.8-6.5-2.2-10-2.4c-13.4-0.3-26.7,5.3-35.7,15.2"/>
					<path class="st3" d="M93.4,206.8c-3.3-0.8-6.9-0.2-10.2,0.8c-12.8,3.7-23.8,13.2-29.5,25.3"/>
				</g>
			</g>
		</g>
	</g>
</g>
</svg>
